<svg xmlns="http://www.w3.org/2000/svg" fill="none" viewBox="11 104 478.27 291.76">
<path d="M290.106 183.767H228.333V190.699H290.106V183.767Z" fill="#13DCFF"/>
<path d="M290.106 202.178H228.333V209.121H290.106V202.178Z" fill="#13DCFF"/>
<path d="M290.106 220.601H228.333V227.533H290.106V220.601Z" fill="#13DCFF"/>
<path d="M344.884 182.028V182.674C344.884 195.792 342.482 207.29 337.689 217.174C332.897 227.059 326.295 235.342 317.904 242.001C312.284 246.475 307.865 250.193 300.958 253.156V172.342H272.512V144.108H216.396L216.385 281H176.292V104H257.244C270.979 104 283.241 105.884 294.032 109.642C304.824 113.411 313.98 118.73 321.501 125.603C329.023 132.485 334.797 140.707 338.833 150.269C342.869 159.841 344.882 170.422 344.882 182.028H344.884Z" fill="#13DCFF"/>
<path d="M285.306 157.733L272.512 144.11V172.344H299.112L285.306 157.734V157.733Z" fill="#FAD60B"/>
<path d="M300.958 172.342H272.512V144.108L287.152 157.733L300.958 172.342Z" fill="#FAD60B"/>
<path d="M38.76 336.8C44.4667 336.8 48.8667 338.667 51.96 342.4C55.0533 346.133 56.6 351.653 56.6 358.96C56.6 366.213 55.0533 371.707 51.96 375.44C48.8667 379.12 44.4667 380.96 38.76 380.96C33.8533 380.96 29.9067 379.36 26.92 376.16V395.76H11V337.76H23.96L25.32 343.76C28.4133 339.12 32.8933 336.8 38.76 336.8ZM33.8 348.56C31.4533 348.56 29.6933 349.387 28.52 351.04C27.3467 352.693 26.76 354.853 26.76 357.52V360.16C26.76 362.827 27.3467 365.013 28.52 366.72C29.6933 368.373 31.4533 369.2 33.8 369.2C38.3867 369.2 40.68 366.453 40.68 360.96V356.72C40.68 351.28 38.3867 348.56 33.8 348.56Z" fill="#104686"/>
<path d="M89.9594 336.72C91.186 336.72 92.2794 336.88 93.2394 337.2C94.1994 337.467 94.6794 337.627 94.6794 337.68V351.04H89.5594C86.2527 351.04 83.8527 351.893 82.3594 353.6C80.9194 355.307 80.1994 357.84 80.1994 361.2V380H64.2794V337.76H77.3194L78.3594 344.16C79.3194 341.707 80.8394 339.867 82.9194 338.64C84.9994 337.36 87.346 336.72 89.9594 336.72Z" fill="#104686"/>
<path d="M122.916 336.8C130.33 336.8 136.143 338.693 140.356 342.48C144.623 346.213 146.756 351.68 146.756 358.88C146.756 366.08 144.623 371.573 140.356 375.36C136.143 379.093 130.33 380.96 122.916 380.96C115.503 380.96 109.69 379.093 105.476 375.36C101.263 371.627 99.1562 366.133 99.1562 358.88C99.1562 351.627 101.263 346.133 105.476 342.4C109.69 338.667 115.503 336.8 122.916 336.8ZM122.916 347.6C117.69 347.6 115.076 350.613 115.076 356.64V361.2C115.076 367.173 117.69 370.16 122.916 370.16C128.196 370.16 130.836 367.173 130.836 361.2V356.64C130.836 350.613 128.196 347.6 122.916 347.6Z" fill="#104686"/>
<path d="M162.901 380L146.901 337.76H164.021L171.781 364.08H172.341L180.101 337.76H195.781L179.621 380H162.901Z" fill="#104686"/>
<path d="M220.338 336.8C228.071 336.8 233.965 338.613 238.018 342.24C242.125 345.867 244.178 351.413 244.178 358.88V361.6H212.498C212.498 364.64 213.165 366.933 214.498 368.48C215.885 370.027 218.045 370.8 220.978 370.8C223.645 370.8 225.591 370.24 226.818 369.12C228.098 368 228.738 366.507 228.738 364.64H244.178C244.178 369.76 242.231 373.76 238.338 376.64C234.445 379.52 228.765 380.96 221.298 380.96C213.458 380.96 207.378 379.147 203.058 375.52C198.738 371.84 196.578 366.293 196.578 358.88C196.578 351.627 198.685 346.133 202.898 342.4C207.111 338.667 212.925 336.8 220.338 336.8ZM220.978 346.96C215.965 346.96 213.165 349.333 212.578 354.08H228.098C228.098 351.893 227.458 350.16 226.178 348.88C224.951 347.6 223.218 346.96 220.978 346.96Z" fill="#104686"/>
<path d="M280.978 336.8C285.884 336.8 289.564 338.16 292.018 340.88C294.471 343.6 295.698 347.52 295.698 352.64V380H279.777V354.56C279.777 352.747 279.297 351.307 278.337 350.24C277.431 349.12 276.124 348.56 274.418 348.56C272.444 348.56 270.844 349.2 269.617 350.48C268.391 351.76 267.777 353.333 267.777 355.2V380H251.857V337.76H264.898L265.938 344.16C267.591 341.92 269.751 340.133 272.418 338.8C275.138 337.467 277.991 336.8 280.978 336.8Z" fill="#104686"/>
<path d="M333.377 337.76V348.56H324.417V364.64C324.417 366.56 324.737 367.973 325.377 368.88C326.017 369.733 327.19 370.16 328.897 370.16H333.377V379.52C332.097 379.947 330.444 380.293 328.417 380.56C326.39 380.827 324.63 380.96 323.137 380.96C318.444 380.96 314.817 380.107 312.257 378.4C309.75 376.693 308.497 373.787 308.497 369.68V348.56H302.577V337.76H309.137L312.577 324.96H324.417V337.76H333.377Z" fill="#104686"/>
<path d="M362.604 336.8C370.017 336.8 375.83 338.693 380.044 342.48C384.31 346.213 386.444 351.68 386.444 358.88C386.444 366.08 384.31 371.573 380.044 375.36C375.83 379.093 370.017 380.96 362.604 380.96C355.19 380.96 349.377 379.093 345.164 375.36C340.95 371.627 338.844 366.133 338.844 358.88C338.844 351.627 340.95 346.133 345.164 342.4C349.377 338.667 355.19 336.8 362.604 336.8ZM362.604 347.6C357.377 347.6 354.764 350.613 354.764 356.64V361.2C354.764 367.173 357.377 370.16 362.604 370.16C367.884 370.16 370.524 367.173 370.524 361.2V356.64C370.524 350.613 367.884 347.6 362.604 347.6Z" fill="#104686"/>
<path d="M392.875 380V364.08H409.835V380H392.875Z" fill="#104686"/>
<path d="M440.316 336.8C446.769 336.8 452.022 337.893 456.076 340.08C460.129 342.213 462.156 345.707 462.156 350.56V367.04C462.156 367.947 462.369 368.693 462.796 369.28C463.222 369.867 463.862 370.16 464.716 370.16H467.596V379.36C467.436 379.467 467.009 379.653 466.316 379.92C465.676 380.133 464.742 380.347 463.516 380.56C462.289 380.827 460.876 380.96 459.276 380.96C456.182 380.96 453.622 380.507 451.596 379.6C449.622 378.64 448.262 377.333 447.516 375.68C445.489 377.28 443.222 378.56 440.716 379.52C438.209 380.48 435.276 380.96 431.916 380.96C421.996 380.96 417.036 377.013 417.036 369.12C417.036 365.013 418.129 361.893 420.316 359.76C422.556 357.573 425.756 356.08 429.916 355.28C434.076 354.48 439.516 354.08 446.236 354.08V352C446.236 350.347 445.649 349.093 444.476 348.24C443.356 347.387 441.889 346.96 440.076 346.96C438.422 346.96 436.982 347.253 435.756 347.84C434.582 348.427 433.996 349.36 433.996 350.64V350.96H418.316C418.262 350.693 418.236 350.32 418.236 349.84C418.236 345.84 420.129 342.667 423.916 340.32C427.756 337.973 433.222 336.8 440.316 336.8ZM446.236 361.6C441.702 361.6 438.342 362.107 436.156 363.12C434.022 364.08 432.956 365.387 432.956 367.04C432.956 369.707 434.769 371.04 438.396 371.04C440.476 371.04 442.289 370.48 443.836 369.36C445.436 368.24 446.236 366.853 446.236 365.2V361.6Z" fill="#104686"/>
<path d="M473.355 332.8V322H489.275V332.8H473.355ZM473.355 380V337.76H489.275V380H473.355Z" fill="#104686"/>
</svg>