<svg xmlns="http://www.w3.org/2000/svg" fill="none" viewBox="55 45 140.87 160.33">
<path d="M150.103 117.252H98.4851V123.532H150.103V117.252Z" fill="#13DCFF"/>
<path d="M150.103 133.929H98.4851V140.218H150.103V133.929Z" fill="#13DCFF"/>
<path d="M150.103 150.617H98.4851V156.896H150.103V150.617Z" fill="#13DCFF"/>
<path d="M195.874 115.678V116.262C195.874 128.145 193.868 138.56 189.862 147.513C185.858 156.466 180.341 163.969 173.331 170.001C168.634 174.053 164.942 177.421 159.17 180.105V106.904H135.401V81.33H88.5107L88.5021 205.326H55V45H122.643C134.12 45 144.366 46.7062 153.383 50.1106C162.401 53.5242 170.052 58.3425 176.336 64.5682C182.621 70.8017 187.446 78.249 190.818 86.9102C194.191 95.5805 195.873 105.164 195.873 115.678H195.874Z" fill="#13DCFF"/>
<path d="M146.092 93.6709L135.401 81.3315V106.905H157.628L146.092 93.6722V93.6709Z" fill="#FAD60B"/>
<path d="M159.17 106.904H135.401V81.3301L147.634 93.6708L159.17 106.904Z" fill="#FAD60B"/>
</svg>